<svg width="30" height="30" viewBox="0 0 30 30" fill="none" xmlns="http://www.w3.org/2000/svg">
<path d="M19.6575 11.25L15 30L10.3425 11.25H19.6575ZM13.7162 0L10.535 8.75H19.465L16.2838 0H13.7162ZM22.125 8.75H29.8013C29.6859 8.39337 29.5174 8.05622 29.3013 7.75L24.8875 1.57125C24.5407 1.0854 24.0829 0.689365 23.5522 0.416076C23.0215 0.142787 22.4332 0.000141421 21.8363 0L18.9438 0L22.125 8.75ZM22.2313 11.25L18.775 25.375L29.1988 12.25C29.4331 11.9472 29.6191 11.6098 29.75 11.25H22.2313ZM7.76875 11.25H0.25C0.383059 11.6099 0.570668 11.9472 0.80625 12.25L11.225 25.375L7.76875 11.25ZM7.875 8.75L11.0563 0H8.16375C7.56681 0.000141421 6.97853 0.142787 6.44782 0.416076C5.91712 0.689365 5.45932 1.0854 5.1125 1.57125L0.69875 7.75C0.482158 8.05594 0.313549 8.39316 0.19875 8.75H7.875Z" fill="url(#paint0_linear_3_314)"/>
<defs>
<linearGradient id="paint0_linear_3_314" x1="15" y1="0" x2="15" y2="30" gradientUnits="userSpaceOnUse">
<stop stop-color="#263C66"/>
<stop offset="1" stop-color="#4C78CC"/>
</linearGradient>
</defs>
</svg>
