<svg width="30" height="30" viewBox="0 0 30 30" fill="none" xmlns="http://www.w3.org/2000/svg">
<path d="M2.5 15H0C0 6.72875 6.72875 0 15 0C18.7275 0 22.2763 1.39625 25 3.8325V0H27.5V6.25C27.5 7.62875 26.3787 8.75 25 8.75H18.75V6.25H23.895C21.5637 3.88375 18.3738 2.5 15 2.5C8.1075 2.5 2.5 8.1075 2.5 15ZM27.5 15C27.5 21.8925 21.8925 27.5 15 27.5C11.6263 27.5 8.435 26.1162 6.10375 23.75H11.25V21.25H5C3.62125 21.25 2.5 22.3713 2.5 23.75V30H5V26.1675C7.72375 28.6038 11.2725 30 15 30C23.2712 30 30 23.2712 30 15H27.5ZM22.1225 12.34L20.3525 13.36C20.5138 13.8825 20.625 14.4263 20.625 15C20.625 15.5737 20.5138 16.1175 20.3525 16.64L22.1225 17.66L20.875 19.8263L19.1112 18.81C18.355 19.625 17.37 20.2162 16.25 20.4725V22.4988H13.75V20.4725C12.63 20.2162 11.645 19.625 10.8888 18.81L9.125 19.8263L7.8775 17.66L9.6475 16.64C9.48625 16.1175 9.375 15.5737 9.375 14.9987C9.375 14.4237 9.48625 13.88 9.6475 13.3588L7.8775 12.34L9.125 10.1737L10.8888 11.1888C11.645 10.3738 12.63 9.7825 13.75 9.52625V7.5H16.25V9.52625C17.37 9.7825 18.3562 10.3738 19.1112 11.1888L20.875 10.1725L22.1225 12.34ZM16.875 15C16.875 13.9663 16.0338 13.125 15 13.125C13.9663 13.125 13.125 13.9663 13.125 15C13.125 16.0338 13.9663 16.875 15 16.875C16.0338 16.875 16.875 16.0338 16.875 15Z" fill="url(#paint0_linear_3_353)"/>
<defs>
<linearGradient id="paint0_linear_3_353" x1="15" y1="0" x2="15" y2="30" gradientUnits="userSpaceOnUse">
<stop stop-color="#263C66"/>
<stop offset="1" stop-color="#4C78CC"/>
</linearGradient>
</defs>
</svg>
