<svg width="30" height="30" viewBox="0 0 30 30" fill="none" xmlns="http://www.w3.org/2000/svg">
<path d="M20.625 7.5C20.625 6.935 20.5162 6.4 20.3612 5.88625L22.1362 4.875L20.8988 2.7025L19.1287 3.71125C18.3713 2.88625 17.3787 2.28625 16.25 2.0275V0H13.75V2.02625C12.6213 2.28375 11.6287 2.885 10.8712 3.71L9.10125 2.70125L7.86375 4.87375L9.63875 5.885C9.48375 6.4 9.375 6.935 9.375 7.49875C9.375 8.0625 9.48375 8.59875 9.63875 9.1125L7.86375 10.1237L9.10125 12.2962L10.8712 11.2875C11.6287 12.1125 12.6213 12.7125 13.75 12.9712V14.9975H16.25V12.9712C17.3787 12.7137 18.3713 12.1125 19.1287 11.2875L20.8988 12.2962L22.1362 10.1237L20.3612 9.1125C20.5162 8.5975 20.625 8.06375 20.625 7.5ZM15 9.375C13.9663 9.375 13.125 8.53375 13.125 7.5C13.125 6.46625 13.9663 5.625 15 5.625C16.0338 5.625 16.875 6.46625 16.875 7.5C16.875 8.53375 16.0338 9.375 15 9.375ZM8.125 27.5V30H0V27.5C0 26.1187 1.11875 25 2.5 25H5.625C7.00625 25 8.125 26.1187 8.125 27.5ZM27.5 25H24.375C22.9937 25 21.875 26.1187 21.875 27.5V30H30V27.5C30 26.1187 28.8813 25 27.5 25ZM16.875 25H13.125C11.7437 25 10.625 26.1187 10.625 27.5V30H19.375V27.5C19.375 26.1187 18.2563 25 16.875 25ZM25.9612 23.75C27.6875 23.75 29.0862 22.3512 29.0862 20.625C29.0862 18.8988 27.6875 17.5 25.9612 17.5C24.235 17.5 22.8362 18.8988 22.8362 20.625C22.8362 22.3512 24.235 23.75 25.9612 23.75ZM15 23.75C16.7262 23.75 18.125 22.3512 18.125 20.625C18.125 18.8988 16.7262 17.5 15 17.5C13.2738 17.5 11.875 18.8988 11.875 20.625C11.875 22.3512 13.2738 23.75 15 23.75ZM4.03875 23.75C5.765 23.75 7.16375 22.3512 7.16375 20.625C7.16375 18.8988 5.765 17.5 4.03875 17.5C2.3125 17.5 0.91375 18.8988 0.91375 20.625C0.91375 22.3512 2.3125 23.75 4.03875 23.75ZM23.6512 8.75C23.71 8.34125 23.7512 7.925 23.7512 7.5C23.7512 7.075 23.71 6.65875 23.6512 6.25H26.2512C28.3187 6.25 30.0012 7.9325 30.0012 10V16.725C29.3237 16.0238 28.4625 15.5162 27.5012 15.2413V10C27.5012 9.31 26.9412 8.75 26.2512 8.75H23.6512ZM0 16.725V10C0 7.9325 1.6825 6.25 3.75 6.25H6.35C6.29125 6.65875 6.25 7.075 6.25 7.5C6.25 7.925 6.29125 8.34125 6.35 8.75H3.75C3.06 8.75 2.5 9.31 2.5 10V15.2413C1.53875 15.5175 0.6775 16.025 0 16.725Z" fill="url(#paint0_linear_3_334)"/>
<defs>
<linearGradient id="paint0_linear_3_334" x1="15.0006" y1="0" x2="15.0006" y2="30" gradientUnits="userSpaceOnUse">
<stop stop-color="#263C66"/>
<stop offset="1" stop-color="#4C78CC"/>
</linearGradient>
</defs>
</svg>
