<svg width="30" height="30" viewBox="0 0 30 30" fill="none" xmlns="http://www.w3.org/2000/svg">
<path d="M8.8225 6.2025C9.87125 6.2025 10.8162 6.635 11.4962 7.32875C9.84 8.45375 8.74875 10.3525 8.74875 12.5013C8.74875 12.9113 8.79375 13.31 8.87 13.6987C8.85375 13.6987 8.83875 13.7038 8.8225 13.7038C6.75125 13.7038 5.0725 12.025 5.0725 9.95375C5.0725 7.8825 6.75125 6.2025 8.8225 6.2025ZM21.25 12.5C21.25 12.9237 21.2062 13.3375 21.125 13.7375C21.1675 13.7387 21.2075 13.75 21.25 13.75C23.3212 13.75 25 12.0712 25 10C25 7.92875 23.3212 6.25 21.25 6.25C20.1987 6.25 19.2512 6.68625 18.57 7.3825C20.1863 8.51375 21.25 10.3813 21.25 12.5ZM15 16.25C17.0712 16.25 18.75 14.5712 18.75 12.5C18.75 10.4288 17.0712 8.75 15 8.75C12.9288 8.75 11.25 10.4288 11.25 12.5C11.25 14.5712 12.9288 16.25 15 16.25ZM2.5 26.25V21.25H0V26.25C0 28.3175 1.6825 30 3.75 30H8.75V27.5H3.75C3.06125 27.5 2.5 26.94 2.5 26.25ZM27.5 26.25C27.5 26.94 26.9387 27.5 26.25 27.5H21.25V30H26.25C28.3175 30 30 28.3175 30 26.25V21.25H27.5V26.25ZM26.25 0H21.25V2.5H26.25C26.9387 2.5 27.5 3.06 27.5 3.75V8.75H30V3.75C30 1.6825 28.3175 0 26.25 0ZM2.5 3.75C2.5 3.06 3.06125 2.5 3.75 2.5H8.75V0H3.75C1.6825 0 0 1.6825 0 3.75V8.75H2.5V3.75ZM16.875 18.75H13.125C11.4025 18.75 10 20.1513 10 21.875V23.75H20V21.875C20 20.1513 18.5975 18.75 16.875 18.75ZM26.25 21.25V19.375C26.25 17.6513 24.8475 16.25 23.125 16.25H19.375C18.9937 16.25 18.6325 16.3288 18.295 16.4538C20.5087 17.035 22.175 18.9237 22.4375 21.25H26.25ZM10.625 16.25H6.875C5.1525 16.25 3.75 17.6513 3.75 19.375V21.25H7.56375C7.825 18.925 9.49125 17.0363 11.7062 16.4538C11.3687 16.3288 11.0075 16.25 10.6263 16.25H10.625Z" fill="url(#paint0_linear_3_341)"/>
<defs>
<linearGradient id="paint0_linear_3_341" x1="15" y1="0" x2="15" y2="30" gradientUnits="userSpaceOnUse">
<stop stop-color="#263C66"/>
<stop offset="1" stop-color="#4C78CC"/>
</linearGradient>
</defs>
</svg>
