<svg width="80" height="80" viewBox="0 0 80 80" fill="none" xmlns="http://www.w3.org/2000/svg">
<path d="M32.7373 43.3449C34.2973 45.4305 36.2876 47.1561 38.5732 48.4049C40.8588 49.6536 43.3862 50.3962 45.984 50.5822C48.5818 50.7683 51.1893 50.3934 53.6295 49.4832C56.0697 48.5729 58.2856 47.1485 60.1269 45.3065L71.0247 34.4088C74.3332 30.9832 76.1639 26.3952 76.1225 21.633C76.0811 16.8707 74.1709 12.3153 70.8034 8.94771C67.4359 5.58017 62.8804 3.67 58.1181 3.62862C53.3559 3.58723 48.7679 5.41795 45.3423 8.72646L39.0943 14.9382" stroke="white" stroke-width="7.26515" stroke-linecap="round" stroke-linejoin="round"/>
<path d="M47.2687 36.0796C45.7087 33.994 43.7184 32.2684 41.4328 31.0196C39.1472 29.7709 36.6198 29.0284 34.022 28.8423C31.4242 28.6563 28.8167 29.0311 26.3765 29.9413C23.9363 30.8516 21.7204 32.276 19.8791 34.118L8.98135 45.0157C5.67283 48.4413 3.84212 53.0293 3.8835 57.7915C3.92488 62.5538 5.83505 67.1093 9.2026 70.4768C12.5701 73.8443 17.1256 75.7545 21.8879 75.7959C26.6501 75.8373 31.2381 74.0066 34.6637 70.6981L40.8754 64.4863" stroke="white" stroke-width="7.26515" stroke-linecap="round" stroke-linejoin="round"/>
</svg>
