<svg width="89" height="89" viewBox="0 0 89 89" fill="none" xmlns="http://www.w3.org/2000/svg">
<path d="M55.9359 35.0176C55.9359 35.0176 50.0693 51.5494 47.2831 54.4355C45.9381 55.7918 44.113 56.5638 42.2029 56.5844C40.2929 56.6051 38.4515 55.8726 37.0775 54.5456C35.7035 53.2187 34.9074 51.404 34.8615 49.4944C34.8156 47.5847 35.5236 45.7339 36.8322 44.3424C39.6184 41.4545 55.9359 35.0176 55.9359 35.0176Z" stroke="white" stroke-width="7.26515" stroke-linejoin="round"/>
<path d="M71.4743 71.4713C75.0208 67.9328 77.8334 63.7285 79.7503 59.0998C81.6672 54.4712 82.6507 49.5094 82.6444 44.4995C82.6444 23.4342 65.5677 6.35742 44.5024 6.35742C23.4371 6.35742 6.36035 23.4342 6.36035 44.4995C6.36035 55.0321 10.6286 64.5676 17.5305 71.4713M44.5024 8.17371V15.4389M71.4652 21.1456L65.8202 25.7172M78.1437 50.3715L71.0656 48.7369M10.8593 50.3715L17.9392 48.7369M17.5396 21.1456L23.1846 25.7172" stroke="white" stroke-width="7.26515" stroke-linecap="round" stroke-linejoin="round"/>
<line x1="17.001" y1="72" x2="72.001" y2="72" stroke="white" stroke-width="6"/>
</svg>
