<svg width="81" height="78" viewBox="0 0 81 78" fill="none" xmlns="http://www.w3.org/2000/svg">
<path d="M30.3267 73.4606C24.3187 71.6663 18.8774 68.3475 14.5322 63.827C15.9302 62.1689 16.8016 60.1315 17.0351 57.9753C17.2685 55.8192 16.8533 53.6425 15.8426 51.7236C14.8319 49.8048 13.2716 48.2312 11.3615 47.2042C9.45141 46.1771 7.27829 45.7433 5.12024 45.9583C4.6275 43.5503 4.38042 41.0985 4.38283 38.6405C4.38283 34.8445 4.96404 31.1828 6.04655 27.7428H6.19912C8.05129 27.7434 9.87305 27.2719 11.4924 26.3728C13.1117 25.4738 14.4752 24.1769 15.4541 22.6045C16.4329 21.0321 16.9949 19.2362 17.0869 17.3863C17.1789 15.5364 16.7979 13.6936 15.9798 12.0319C20.2396 8.06847 25.3892 5.18629 30.9951 3.62793C31.9075 5.41952 33.2979 6.92376 35.0122 7.97422C36.7265 9.02468 38.698 9.5804 40.7086 9.5799C42.7192 9.5804 44.6907 9.02468 46.405 7.97422C48.1193 6.92376 49.5096 5.41952 50.4221 3.62793C56.028 5.18629 61.1776 8.06847 65.4374 12.0319C64.6133 13.7053 64.2326 15.5621 64.3317 17.4247C64.4307 19.2873 65.0061 21.0934 66.0029 22.6699C66.9997 24.2465 68.3845 25.5408 70.0247 26.429C71.6649 27.3172 73.5056 27.7696 75.3706 27.7428C76.4764 31.2696 77.0374 34.9444 77.0343 38.6405C77.0343 41.147 76.7801 43.5953 76.2969 45.9602C74.1389 45.7451 71.9658 46.1789 70.0556 47.206C68.1455 48.233 66.5853 49.8066 65.5746 51.7255C64.5639 53.6443 64.1487 55.821 64.3821 57.9772C64.6155 60.1333 65.487 62.1707 66.8849 63.8288C62.5396 68.3487 57.0983 71.6668 51.0905 73.4606C50.385 71.2616 48.9994 69.3434 47.1336 67.9825C45.2677 66.6216 43.018 65.8884 40.7086 65.8884C38.3992 65.8884 36.1494 66.6216 34.2836 67.9825C32.4178 69.3434 31.0322 71.2616 30.3267 73.4606Z" stroke="white" stroke-width="7.26515" stroke-linejoin="round"/>
<path d="M40.7091 51.3548C42.3788 51.3548 44.032 51.0259 45.5746 50.387C47.1171 49.7481 48.5187 48.8115 49.6993 47.6309C50.8799 46.4503 51.8164 45.0488 52.4554 43.5062C53.0943 41.9637 53.4231 40.3104 53.4231 38.6408C53.4231 36.9711 53.0943 35.3179 52.4554 33.7753C51.8164 32.2328 50.8799 30.8312 49.6993 29.6506C48.5187 28.47 47.1171 27.5335 45.5746 26.8946C44.032 26.2556 42.3788 25.9268 40.7091 25.9268C37.3372 25.9268 34.1033 27.2663 31.719 29.6506C29.3346 32.0349 27.9951 35.2688 27.9951 38.6408C27.9951 42.0127 29.3346 45.2466 31.719 47.6309C34.1033 50.0153 37.3372 51.3548 40.7091 51.3548Z" stroke="white" stroke-width="7.26515" stroke-linejoin="round"/>
</svg>
