<svg width="51" height="46" viewBox="0 0 51 46" fill="none" xmlns="http://www.w3.org/2000/svg">
<path fill-rule="evenodd" clip-rule="evenodd" d="M20.0753 38.3333H2.67022V10.8611H43.8095V14.375C43.8095 14.6292 43.9095 14.8729 44.0875 15.0526C44.2656 15.2324 44.507 15.3333 44.7588 15.3333C45.0106 15.3333 45.2521 15.2324 45.4301 15.0526C45.6082 14.8729 45.7082 14.6292 45.7082 14.375V0.958333C45.7082 0.704168 45.6082 0.460412 45.4301 0.28069C45.2521 0.100967 45.0106 0 44.7588 0H1.72085C1.46906 0 1.22759 0.100967 1.04955 0.28069C0.871507 0.460412 0.771484 0.704168 0.771484 0.958333V39.2917C0.771484 39.5458 0.871507 39.7896 1.04955 39.9693C1.22759 40.149 1.46906 40.25 1.72085 40.25H20.0753C20.3271 40.25 20.5685 40.149 20.7466 39.9693C20.9246 39.7896 21.0246 39.5458 21.0246 39.2917C21.0246 39.0375 20.9246 38.7937 20.7466 38.614C20.5685 38.4343 20.3271 38.3333 20.0753 38.3333ZM43.8095 1.91667V8.94444H2.67022V1.91667H43.8095Z" fill="white"/>
<path fill-rule="evenodd" clip-rule="evenodd" d="M6.15054 6.38883H9.3151C9.56688 6.38883 9.80836 6.28787 9.9864 6.10814C10.1644 5.92842 10.2645 5.68467 10.2645 5.4305C10.2645 5.17634 10.1644 4.93258 9.9864 4.75286C9.80836 4.57314 9.56688 4.47217 9.3151 4.47217H6.15054C5.89875 4.47217 5.65728 4.57314 5.47924 4.75286C5.30119 4.93258 5.20117 5.17634 5.20117 5.4305C5.20117 5.68467 5.30119 5.92842 5.47924 6.10814C5.65728 6.28787 5.89875 6.38883 6.15054 6.38883ZM13.1126 6.38883H16.2771C16.5289 6.38883 16.7704 6.28787 16.9484 6.10814C17.1265 5.92842 17.2265 5.68467 17.2265 5.4305C17.2265 5.17634 17.1265 4.93258 16.9484 4.75286C16.7704 4.57314 16.5289 4.47217 16.2771 4.47217H13.1126C12.8608 4.47217 12.6193 4.57314 12.4413 4.75286C12.2632 4.93258 12.1632 5.17634 12.1632 5.4305C12.1632 5.68467 12.2632 5.92842 12.4413 6.10814C12.6193 6.28787 12.8608 6.38883 13.1126 6.38883ZM35.5809 24.2777C34.3291 24.2777 33.1055 24.6524 32.0647 25.3544C31.0238 26.0565 30.2126 27.0543 29.7336 28.2217C29.2545 29.3891 29.1292 30.6737 29.3734 31.913C29.6176 33.1523 30.2204 34.2907 31.1056 35.1842C31.9907 36.0777 33.1184 36.6862 34.3462 36.9327C35.5739 37.1793 36.8465 37.0527 38.003 36.5692C39.1595 36.0856 40.1479 35.2667 40.8434 34.2161C41.5388 33.1654 41.91 31.9302 41.91 30.6666C41.91 28.9722 41.2432 27.3471 40.0563 26.149C38.8693 24.9508 37.2595 24.2777 35.5809 24.2777ZM35.5809 35.1388C34.7047 35.1388 33.8481 34.8765 33.1195 34.3851C32.391 33.8937 31.8231 33.1952 31.4878 32.3781C31.1525 31.5609 31.0647 30.6616 31.2357 29.7941C31.4066 28.9266 31.8286 28.1297 32.4482 27.5043C33.0678 26.8788 33.8572 26.4529 34.7166 26.2803C35.576 26.1078 36.4668 26.1963 37.2764 26.5348C38.0859 26.8733 38.7778 27.4465 39.2646 28.182C39.7515 28.9174 40.0113 29.7821 40.0113 30.6666C40.0113 31.8527 39.5445 32.9902 38.7137 33.8289C37.8828 34.6677 36.7559 35.1388 35.5809 35.1388Z" fill="white"/>
<path fill-rule="evenodd" clip-rule="evenodd" d="M49.9603 27.2485L46.3401 26.6927C46.1553 26.1198 45.9267 25.5623 45.6565 25.0252L47.8338 22.0416C47.977 21.8543 48.0465 21.6202 48.029 21.3843C48.0114 21.1484 47.9081 20.9274 47.7388 20.7638L44.7262 17.7227C44.5641 17.5518 44.3451 17.4475 44.1115 17.4298C43.8778 17.4121 43.6458 17.4823 43.4603 17.6268L40.5173 19.8182C39.988 19.5594 39.4401 19.3415 38.8781 19.1666L38.3338 15.5249C38.3032 15.2956 38.1916 15.0853 38.0194 14.9326C37.8472 14.78 37.6262 14.6954 37.3971 14.6943H33.1312C32.904 14.6949 32.6845 14.7778 32.5126 14.9278C32.3407 15.0779 32.2278 15.2852 32.1945 15.5121L31.6502 19.1666C31.0783 19.3548 30.5218 19.5876 29.9857 19.8629L27.0426 17.6716C26.8571 17.527 26.6252 17.4568 26.3915 17.4745C26.1578 17.4922 25.9389 17.5965 25.7768 17.7674L22.7641 20.8085C22.5949 20.9721 22.4915 21.1931 22.474 21.429C22.4565 21.6649 22.526 21.899 22.6692 22.0863L24.8464 25.0699C24.587 25.5934 24.3669 26.1358 24.1882 26.6927L20.5553 27.2485C20.3328 27.2849 20.1304 27.4 19.9843 27.5733C19.8382 27.7465 19.7579 27.9665 19.7578 28.1941V32.5002C19.7584 32.7296 19.8405 32.9511 19.9891 33.1247C20.1378 33.2982 20.3431 33.4121 20.5679 33.4457L24.2198 34.0016C24.4039 34.5634 24.6303 35.1101 24.8971 35.6371L22.7009 38.6399C22.5577 38.8272 22.4881 39.0613 22.5057 39.2972C22.5232 39.5331 22.6265 39.7541 22.7958 39.9177L25.8084 42.9588C25.9705 43.1296 26.1895 43.234 26.4232 43.2517C26.6568 43.2693 26.8888 43.1992 27.0743 43.0546L30.0616 40.8313C30.58 41.0953 31.1174 41.3196 31.6692 41.5021L32.2262 45.2077C32.2639 45.4246 32.3744 45.6218 32.5393 45.7661C32.7041 45.9104 32.9132 45.9929 33.1312 45.9999H37.3971C37.6243 45.9993 37.8438 45.9165 38.0157 45.7664C38.1876 45.6164 38.3004 45.409 38.3338 45.1821L38.8907 41.4766C39.4425 41.294 39.9799 41.0697 40.4983 40.8057L43.4857 43.0291C43.6712 43.1736 43.9031 43.2438 44.1368 43.2261C44.3705 43.2084 44.5894 43.1041 44.7515 42.9332L47.7641 39.8921C47.9334 39.7285 48.0367 39.5075 48.0543 39.2716C48.0718 39.0357 48.0023 38.8016 47.8591 38.6143L45.6629 35.6116C45.9284 35.0928 46.1548 34.5547 46.3401 34.0016L49.992 33.4457C50.211 33.4053 50.4089 33.2884 50.5512 33.1156C50.6935 32.9427 50.7711 32.7249 50.7705 32.5002V28.1941C50.7699 27.9647 50.6878 27.7431 50.5392 27.5696C50.3905 27.3961 50.1851 27.2821 49.9603 27.2485ZM48.8717 31.676L45.435 32.1999C45.2534 32.2281 45.0837 32.3089 44.9466 32.4325C44.8096 32.5561 44.711 32.7172 44.6629 32.8963C44.4424 33.717 44.1168 34.5052 43.6945 35.241C43.6021 35.4023 43.5582 35.5874 43.5683 35.7735C43.5784 35.9596 43.6421 36.1386 43.7515 36.2888L45.8211 39.1191L43.9603 40.9974L41.1439 38.9018C40.9952 38.7914 40.8177 38.7271 40.6334 38.7169C40.449 38.7067 40.2657 38.751 40.1059 38.8443C39.3805 39.2655 38.604 39.5898 37.7958 39.8091C37.6184 39.8576 37.4588 39.9571 37.3363 40.0955C37.2139 40.2338 37.1338 40.4051 37.1059 40.5885L36.5806 44.0832H33.9477L33.4224 40.5885C33.3945 40.4051 33.3144 40.2338 33.192 40.0955C33.0695 39.9571 32.9099 39.8576 32.7325 39.8091C31.9243 39.5897 31.1478 39.2655 30.4224 38.8443C30.2626 38.751 30.0792 38.7067 29.8949 38.7169C29.7105 38.7271 29.5331 38.7914 29.3844 38.9018L26.5679 40.9974L24.7072 39.1191L26.7831 36.2888C26.8925 36.1386 26.9562 35.9596 26.9663 35.7735C26.9764 35.5874 26.9326 35.4023 26.8401 35.241C26.4178 34.5052 26.0922 33.717 25.8717 32.8963C25.8236 32.7172 25.7251 32.5561 25.588 32.4325C25.4509 32.3089 25.2813 32.2281 25.0996 32.1999L21.6565 31.676V29.0182L25.0806 28.4943C25.2642 28.4668 25.4358 28.3856 25.5742 28.2607C25.7125 28.1358 25.8116 27.9727 25.8591 27.7916C26.0772 26.9619 26.4028 26.1649 26.8274 25.4213C26.9199 25.26 26.9638 25.0749 26.9536 24.8888C26.9435 24.7027 26.8799 24.5236 26.7705 24.3735L24.7198 21.5688L26.5806 19.6904L29.3527 21.7541C29.5015 21.8645 29.6789 21.9287 29.8632 21.939C30.0476 21.9492 30.2309 21.9049 30.3907 21.8116C31.1308 21.3775 31.9246 21.0445 32.7515 20.8213C32.9309 20.7733 33.0925 20.6734 33.2162 20.5337C33.34 20.394 33.4205 20.2208 33.4477 20.0354L33.9477 16.611H36.5806L37.0933 20.0418C37.1205 20.2272 37.201 20.4004 37.3247 20.5401C37.4484 20.6797 37.61 20.7797 37.7895 20.8277C38.6163 21.0509 39.4101 21.3839 40.1502 21.8179C40.3098 21.9121 40.4932 21.9568 40.6778 21.9466C40.8623 21.9364 41.0398 21.8716 41.1882 21.7604L43.9603 19.6968L45.8211 21.5752L43.7705 24.3799C43.6611 24.53 43.5974 24.7091 43.5873 24.8952C43.5772 25.0813 43.621 25.2663 43.7135 25.4277C44.1382 26.1713 44.4638 26.9683 44.6819 27.7979C44.7293 27.9791 44.8284 28.1422 44.9668 28.2671C45.1051 28.392 45.2767 28.4732 45.4603 28.5007L48.8844 29.0246L48.8717 31.676Z" fill="white"/>
</svg>
