<svg width="50" height="50" viewBox="0 0 50 50" fill="none" xmlns="http://www.w3.org/2000/svg">
<path d="M43.5 13.2636L26.3125 3.85349C25.9106 3.63155 25.4591 3.51514 25 3.51514C24.5409 3.51514 24.0894 3.63155 23.6875 3.85349L6.5 13.2636C6.06993 13.499 5.71104 13.8456 5.46089 14.2672C5.21074 14.6888 5.07854 15.1699 5.07812 15.6601V34.3398C5.07854 34.8301 5.21074 35.3112 5.46089 35.7328C5.71104 36.1544 6.06993 36.501 6.5 36.7363L23.6875 46.1465C24.0895 46.368 24.541 46.4842 25 46.4842C25.459 46.4842 25.9105 46.368 26.3125 46.1465L43.5 36.7363C43.9301 36.501 44.289 36.1544 44.5391 35.7328C44.7893 35.3112 44.9215 34.8301 44.9219 34.3398V15.6601C44.9215 15.1699 44.7893 14.6888 44.5391 14.2672C44.289 13.8456 43.9301 13.499 43.5 13.2636ZM24.8047 5.90817C24.8622 5.87672 24.9267 5.86023 24.9922 5.86023C25.0577 5.86023 25.1222 5.87672 25.1797 5.90817L41.5059 14.8437L34.877 18.4707L18.3691 9.43552L24.8047 5.90817ZM23.8281 43.5547L7.61719 34.6816C7.55729 34.647 7.50764 34.5972 7.47333 34.5371C7.43901 34.4771 7.42126 34.409 7.42188 34.3398V16.9258L23.8281 25.9101V43.5547ZM8.49414 14.8437L15.9297 10.7715L32.4355 19.8066L25 23.875L8.49414 14.8437ZM42.5781 34.3398C42.5787 34.409 42.561 34.4771 42.5267 34.5371C42.4924 34.5972 42.4427 34.647 42.3828 34.6816L26.1719 43.5547V25.9062L33.2031 22.0566V29.6875C33.2031 29.9983 33.3266 30.2963 33.5464 30.5161C33.7661 30.7359 34.0642 30.8593 34.375 30.8593C34.6858 30.8593 34.9839 30.7359 35.2036 30.5161C35.4234 30.2963 35.5469 29.9983 35.5469 29.6875V20.7754L42.5781 16.9258V34.3398Z" fill="white"/>
</svg>
