<svg width="50" height="50" viewBox="0 0 50 50" fill="none" xmlns="http://www.w3.org/2000/svg">
<path d="M29.0693 3.16021L25.5436 21.6845L38.3163 21.7274L20.9303 46.8399L24.4561 26.4602L11.6842 26.4157L29.0693 3.16021ZM29.0717 0.0352539C28.9873 0.0352539 28.903 0.0383301 28.8202 0.0445313C28.2686 0.0891113 27.903 0.273486 27.4694 0.564893C27.2253 0.727654 27.0052 0.923833 26.8155 1.14771C26.7586 1.21491 26.7049 1.28478 26.6545 1.35708L9.14438 24.5313C8.45297 25.479 8.35141 26.7298 8.88266 27.7751C9.41313 28.8204 10.4858 29.4829 11.6616 29.4915L20.6819 29.5571L17.8459 46.2657C17.5764 47.7017 18.342 49.1329 19.6897 49.7095C20.0813 49.8778 20.5032 49.9644 20.9295 49.9642C21.9115 49.9642 22.7185 49.5048 23.3241 48.6751L40.8561 23.5625C41.5475 22.6148 41.6483 21.3625 41.1178 20.3188C40.5873 19.2734 39.5147 18.6109 38.3389 18.6023L29.3186 18.5867L32.1241 3.89531C32.1835 3.65479 32.2134 3.40792 32.2132 3.16016C32.2132 1.46953 30.867 0.0914063 29.1827 0.0367188C29.1452 0.0351563 29.1084 0.0351562 29.0718 0.0351562L29.0717 0.0352539Z" fill="white"/>
</svg>
